<mxfile host="Electron" modified="2024-11-12T08:12:37.893Z" agent="Mozilla/5.0 (Windows NT 10.0; Win64; x64) AppleWebKit/537.36 (KHTML, like Gecko) draw.io/21.1.2 Chrome/106.0.5249.199 Electron/21.4.3 Safari/537.36" etag="Fs6MSPTMt9Nfru_xVrGf" version="21.1.2" type="device">
  <diagram name="Side-1" id="tLMEfP2CB3SQrB6IbMrK">
    <mxGraphModel dx="1418" dy="820" grid="1" gridSize="10" guides="1" tooltips="1" connect="1" arrows="1" fold="1" page="1" pageScale="1" pageWidth="1169" pageHeight="1654" math="0" shadow="0">
      <root>
        <mxCell id="0" />
        <mxCell id="1" parent="0" />
        <mxCell id="wmiJ7FHdRQBtYZNkb7RU-1" value="" style="rounded=0;whiteSpace=wrap;html=1;" parent="1" vertex="1">
          <mxGeometry x="934.01" y="360" width="220" height="330" as="geometry" />
        </mxCell>
        <mxCell id="wmiJ7FHdRQBtYZNkb7RU-5" value="" style="edgeStyle=orthogonalEdgeStyle;rounded=0;orthogonalLoop=1;jettySize=auto;html=1;" parent="1" source="wmiJ7FHdRQBtYZNkb7RU-2" target="wmiJ7FHdRQBtYZNkb7RU-4" edge="1">
          <mxGeometry relative="1" as="geometry" />
        </mxCell>
        <mxCell id="wmiJ7FHdRQBtYZNkb7RU-2" value="ADC" style="rounded=0;whiteSpace=wrap;html=1;dashed=1;" parent="1" vertex="1">
          <mxGeometry x="934.01" y="610" width="70" height="60" as="geometry" />
        </mxCell>
        <mxCell id="wmiJ7FHdRQBtYZNkb7RU-12" style="edgeStyle=orthogonalEdgeStyle;rounded=0;orthogonalLoop=1;jettySize=auto;html=1;entryX=0.75;entryY=0;entryDx=0;entryDy=0;" parent="1" source="wmiJ7FHdRQBtYZNkb7RU-3" target="wmiJ7FHdRQBtYZNkb7RU-4" edge="1">
          <mxGeometry relative="1" as="geometry" />
        </mxCell>
        <mxCell id="wmiJ7FHdRQBtYZNkb7RU-13" value="Start time" style="edgeLabel;html=1;align=center;verticalAlign=middle;resizable=0;points=[];" parent="wmiJ7FHdRQBtYZNkb7RU-12" vertex="1" connectable="0">
          <mxGeometry x="-0.4313" y="-1" relative="1" as="geometry">
            <mxPoint as="offset" />
          </mxGeometry>
        </mxCell>
        <mxCell id="wmiJ7FHdRQBtYZNkb7RU-3" value="Radio interface" style="rounded=0;whiteSpace=wrap;html=1;dashed=1;" parent="1" vertex="1">
          <mxGeometry x="934.01" y="450" width="70" height="60" as="geometry" />
        </mxCell>
        <mxCell id="wmiJ7FHdRQBtYZNkb7RU-4" value="Time Calculation" style="rounded=0;whiteSpace=wrap;html=1;dashed=1;" parent="1" vertex="1">
          <mxGeometry x="1044.01" y="610" width="100" height="60" as="geometry" />
        </mxCell>
        <mxCell id="wmiJ7FHdRQBtYZNkb7RU-11" style="edgeStyle=orthogonalEdgeStyle;rounded=0;orthogonalLoop=1;jettySize=auto;html=1;entryX=0.25;entryY=0;entryDx=0;entryDy=0;" parent="1" source="wmiJ7FHdRQBtYZNkb7RU-7" target="wmiJ7FHdRQBtYZNkb7RU-4" edge="1">
          <mxGeometry relative="1" as="geometry" />
        </mxCell>
        <mxCell id="wmiJ7FHdRQBtYZNkb7RU-14" value="Reference" style="edgeLabel;html=1;align=center;verticalAlign=middle;resizable=0;points=[];" parent="wmiJ7FHdRQBtYZNkb7RU-11" vertex="1" connectable="0">
          <mxGeometry x="-0.2351" y="-2" relative="1" as="geometry">
            <mxPoint as="offset" />
          </mxGeometry>
        </mxCell>
        <mxCell id="wmiJ7FHdRQBtYZNkb7RU-7" value="Sinus Sample" style="rounded=0;whiteSpace=wrap;html=1;dashed=1;" parent="1" vertex="1">
          <mxGeometry x="944.01" y="550" width="70" height="40" as="geometry" />
        </mxCell>
        <mxCell id="wmiJ7FHdRQBtYZNkb7RU-16" value="&lt;font style=&quot;font-size: 20px;&quot;&gt;FPGA&lt;/font&gt;" style="text;html=1;align=center;verticalAlign=middle;resizable=0;points=[];autosize=1;strokeColor=none;fillColor=none;" parent="1" vertex="1">
          <mxGeometry x="1004.01" y="365" width="80" height="40" as="geometry" />
        </mxCell>
        <mxCell id="kanNGnRo4Ryay4J_O3UU-36" style="edgeStyle=orthogonalEdgeStyle;rounded=0;orthogonalLoop=1;jettySize=auto;html=1;entryX=0;entryY=0.5;entryDx=0;entryDy=0;" edge="1" parent="1" source="kanNGnRo4Ryay4J_O3UU-18" target="wmiJ7FHdRQBtYZNkb7RU-2">
          <mxGeometry relative="1" as="geometry" />
        </mxCell>
        <mxCell id="kanNGnRo4Ryay4J_O3UU-17" value="" style="group" vertex="1" connectable="0" parent="1">
          <mxGeometry x="653.005" y="610" width="74" height="60" as="geometry" />
        </mxCell>
        <mxCell id="kanNGnRo4Ryay4J_O3UU-18" value="&lt;div&gt;&lt;br&gt;&lt;/div&gt;&lt;div&gt;&lt;br&gt;&lt;/div&gt;&lt;div&gt;Transducer&lt;br&gt;&lt;/div&gt;&lt;div&gt;Rx&lt;/div&gt;" style="rounded=0;whiteSpace=wrap;html=1;" vertex="1" parent="kanNGnRo4Ryay4J_O3UU-17">
          <mxGeometry width="70" height="60" as="geometry" />
        </mxCell>
        <mxCell id="kanNGnRo4Ryay4J_O3UU-19" value="" style="group" vertex="1" connectable="0" parent="kanNGnRo4Ryay4J_O3UU-17">
          <mxGeometry x="16.25" y="10" width="23.75" height="20" as="geometry" />
        </mxCell>
        <mxCell id="kanNGnRo4Ryay4J_O3UU-20" value="" style="endArrow=none;html=1;rounded=0;" edge="1" parent="kanNGnRo4Ryay4J_O3UU-19">
          <mxGeometry width="50" height="50" relative="1" as="geometry">
            <mxPoint y="4.930000000000007" as="sourcePoint" />
            <mxPoint x="9.5" y="4.930000000000007" as="targetPoint" />
          </mxGeometry>
        </mxCell>
        <mxCell id="kanNGnRo4Ryay4J_O3UU-21" value="" style="endArrow=none;html=1;rounded=0;" edge="1" parent="kanNGnRo4Ryay4J_O3UU-19">
          <mxGeometry width="50" height="50" relative="1" as="geometry">
            <mxPoint y="14.930000000000007" as="sourcePoint" />
            <mxPoint x="9.5" y="14.930000000000007" as="targetPoint" />
          </mxGeometry>
        </mxCell>
        <mxCell id="kanNGnRo4Ryay4J_O3UU-22" value="" style="shape=cylinder3;whiteSpace=wrap;html=1;boundedLbl=1;backgroundOutline=1;size=4.724137931034591;rotation=90;" vertex="1" parent="kanNGnRo4Ryay4J_O3UU-19">
          <mxGeometry x="2.375" width="19" height="20" as="geometry" />
        </mxCell>
        <mxCell id="kanNGnRo4Ryay4J_O3UU-23" value="" style="group" vertex="1" connectable="0" parent="kanNGnRo4Ryay4J_O3UU-17">
          <mxGeometry x="184" width="74" height="60" as="geometry" />
        </mxCell>
        <mxCell id="kanNGnRo4Ryay4J_O3UU-24" value="&lt;br&gt;&lt;br&gt;&lt;br&gt;Filter" style="rounded=0;whiteSpace=wrap;html=1;" vertex="1" parent="kanNGnRo4Ryay4J_O3UU-23">
          <mxGeometry width="70" height="60" as="geometry" />
        </mxCell>
        <mxCell id="kanNGnRo4Ryay4J_O3UU-25" value="" style="verticalLabelPosition=bottom;shadow=0;dashed=0;align=center;html=1;verticalAlign=top;shape=mxgraph.electrical.logic_gates.bandpass_filter;" vertex="1" parent="kanNGnRo4Ryay4J_O3UU-23">
          <mxGeometry x="14.5" y="6.25" width="41.01" height="37.25" as="geometry" />
        </mxCell>
        <mxCell id="kanNGnRo4Ryay4J_O3UU-26" value="" style="group" vertex="1" connectable="0" parent="1">
          <mxGeometry x="746.01" y="619" width="70" height="50" as="geometry" />
        </mxCell>
        <mxCell id="kanNGnRo4Ryay4J_O3UU-27" value="&lt;div&gt;&lt;br&gt;&lt;/div&gt;&lt;div&gt;&lt;br&gt;&lt;/div&gt;&lt;div&gt;&lt;br&gt;&lt;/div&gt;&lt;div&gt;Amplifier&lt;/div&gt;" style="rounded=0;whiteSpace=wrap;html=1;" vertex="1" parent="kanNGnRo4Ryay4J_O3UU-26">
          <mxGeometry x="-1" y="-9" width="70" height="60" as="geometry" />
        </mxCell>
        <mxCell id="kanNGnRo4Ryay4J_O3UU-28" value="" style="group" vertex="1" connectable="0" parent="kanNGnRo4Ryay4J_O3UU-26">
          <mxGeometry x="14" y="-6.5" width="45" height="41.5" as="geometry" />
        </mxCell>
        <mxCell id="kanNGnRo4Ryay4J_O3UU-29" value="" style="triangle;whiteSpace=wrap;html=1;" vertex="1" parent="kanNGnRo4Ryay4J_O3UU-28">
          <mxGeometry x="7.826086956521739" width="29.34782608695652" height="41.5" as="geometry" />
        </mxCell>
        <mxCell id="kanNGnRo4Ryay4J_O3UU-30" value="" style="endArrow=none;html=1;rounded=0;exitX=0;exitY=0.25;exitDx=0;exitDy=0;" edge="1" parent="kanNGnRo4Ryay4J_O3UU-28" source="kanNGnRo4Ryay4J_O3UU-29">
          <mxGeometry width="50" height="50" relative="1" as="geometry">
            <mxPoint x="29.34782608695652" y="-5.1875" as="sourcePoint" />
            <mxPoint y="10.375" as="targetPoint" />
          </mxGeometry>
        </mxCell>
        <mxCell id="kanNGnRo4Ryay4J_O3UU-31" value="" style="endArrow=none;html=1;rounded=0;exitX=0;exitY=0.25;exitDx=0;exitDy=0;" edge="1" parent="kanNGnRo4Ryay4J_O3UU-28">
          <mxGeometry width="50" height="50" relative="1" as="geometry">
            <mxPoint x="7.826086956521739" y="31.125" as="sourcePoint" />
            <mxPoint y="31.125" as="targetPoint" />
          </mxGeometry>
        </mxCell>
        <mxCell id="kanNGnRo4Ryay4J_O3UU-32" value="" style="endArrow=none;html=1;rounded=0;" edge="1" parent="kanNGnRo4Ryay4J_O3UU-28">
          <mxGeometry width="50" height="50" relative="1" as="geometry">
            <mxPoint x="12.228260869565219" y="12.96875" as="sourcePoint" />
            <mxPoint x="12.228260869565219" y="7.78125" as="targetPoint" />
          </mxGeometry>
        </mxCell>
        <mxCell id="kanNGnRo4Ryay4J_O3UU-33" value="" style="endArrow=none;html=1;rounded=0;" edge="1" parent="kanNGnRo4Ryay4J_O3UU-28">
          <mxGeometry width="50" height="50" relative="1" as="geometry">
            <mxPoint x="14.67391304347826" y="10.375" as="sourcePoint" />
            <mxPoint x="9.782608695652174" y="10.375" as="targetPoint" />
          </mxGeometry>
        </mxCell>
        <mxCell id="kanNGnRo4Ryay4J_O3UU-34" value="" style="endArrow=none;html=1;rounded=0;" edge="1" parent="kanNGnRo4Ryay4J_O3UU-28">
          <mxGeometry width="50" height="50" relative="1" as="geometry">
            <mxPoint x="14.67391304347826" y="31.125" as="sourcePoint" />
            <mxPoint x="9.782608695652174" y="31.125" as="targetPoint" />
          </mxGeometry>
        </mxCell>
        <mxCell id="kanNGnRo4Ryay4J_O3UU-35" value="" style="endArrow=none;html=1;rounded=0;exitX=0;exitY=0.25;exitDx=0;exitDy=0;" edge="1" parent="kanNGnRo4Ryay4J_O3UU-28">
          <mxGeometry width="50" height="50" relative="1" as="geometry">
            <mxPoint x="44.99999999999999" y="20.713687499999974" as="sourcePoint" />
            <mxPoint x="37.17391304347826" y="20.713687499999974" as="targetPoint" />
          </mxGeometry>
        </mxCell>
        <mxCell id="kanNGnRo4Ryay4J_O3UU-49" style="edgeStyle=orthogonalEdgeStyle;rounded=0;orthogonalLoop=1;jettySize=auto;html=1;entryX=0;entryY=0.5;entryDx=0;entryDy=0;" edge="1" parent="1" source="kanNGnRo4Ryay4J_O3UU-39" target="wmiJ7FHdRQBtYZNkb7RU-3">
          <mxGeometry relative="1" as="geometry" />
        </mxCell>
        <mxCell id="kanNGnRo4Ryay4J_O3UU-37" value="Arduino nano" style="rounded=0;whiteSpace=wrap;html=1;" vertex="1" parent="1">
          <mxGeometry x="824.01" y="450" width="70" height="60" as="geometry" />
        </mxCell>
        <mxCell id="kanNGnRo4Ryay4J_O3UU-41" value="" style="group" vertex="1" connectable="0" parent="1">
          <mxGeometry x="727.01" y="450" width="70" height="60" as="geometry" />
        </mxCell>
        <mxCell id="kanNGnRo4Ryay4J_O3UU-39" value="&lt;br&gt;&lt;br&gt;&lt;br&gt;Radio" style="rounded=0;whiteSpace=wrap;html=1;" vertex="1" parent="kanNGnRo4Ryay4J_O3UU-41">
          <mxGeometry width="70" height="60" as="geometry" />
        </mxCell>
        <mxCell id="kanNGnRo4Ryay4J_O3UU-40" value="&lt;font style=&quot;font-size: 20px;&quot;&gt;Rx&lt;/font&gt;" style="text;html=1;align=center;verticalAlign=middle;resizable=0;points=[];autosize=1;strokeColor=none;fillColor=none;" vertex="1" parent="kanNGnRo4Ryay4J_O3UU-41">
          <mxGeometry x="10" y="5" width="50" height="40" as="geometry" />
        </mxCell>
        <mxCell id="kanNGnRo4Ryay4J_O3UU-42" value="" style="verticalLabelPosition=bottom;shadow=0;dashed=0;align=center;html=1;verticalAlign=top;shape=mxgraph.electrical.radio.aerial_-_antenna_1;" vertex="1" parent="1">
          <mxGeometry x="650" y="380" width="80" height="100" as="geometry" />
        </mxCell>
        <mxCell id="kanNGnRo4Ryay4J_O3UU-43" value="" style="endArrow=none;html=1;rounded=0;exitX=0;exitY=0.5;exitDx=0;exitDy=0;entryX=0.5;entryY=1;entryDx=0;entryDy=0;entryPerimeter=0;" edge="1" parent="1" source="kanNGnRo4Ryay4J_O3UU-39" target="kanNGnRo4Ryay4J_O3UU-42">
          <mxGeometry width="50" height="50" relative="1" as="geometry">
            <mxPoint x="744.01" y="550" as="sourcePoint" />
            <mxPoint x="794.01" y="500" as="targetPoint" />
          </mxGeometry>
        </mxCell>
        <mxCell id="kanNGnRo4Ryay4J_O3UU-50" value="&lt;div&gt;&lt;br&gt;&lt;/div&gt;&lt;div&gt;&lt;br&gt;&lt;/div&gt;&lt;div&gt;&lt;br&gt;&lt;/div&gt;&lt;div&gt;&lt;br&gt;&lt;/div&gt;&lt;div&gt;&lt;br&gt;&lt;/div&gt;&lt;div&gt;&lt;br&gt;&lt;/div&gt;&lt;div&gt;&lt;br&gt;&lt;/div&gt;&lt;div&gt;&lt;br&gt;&lt;/div&gt;&lt;div&gt;&lt;br&gt;&lt;/div&gt;&lt;div&gt;&lt;br&gt;&lt;/div&gt;&lt;div&gt;&lt;br&gt;&lt;/div&gt;&lt;div&gt;&lt;br&gt;&lt;/div&gt;&lt;div&gt;&lt;br&gt;&lt;/div&gt;&lt;div&gt;&lt;br&gt;&lt;/div&gt;&lt;div&gt;&lt;br&gt;&lt;/div&gt;&lt;div&gt;&lt;br&gt;&lt;/div&gt;" style="rounded=0;whiteSpace=wrap;html=1;" vertex="1" parent="1">
          <mxGeometry x="221" y="510" width="180" height="130" as="geometry" />
        </mxCell>
        <mxCell id="kanNGnRo4Ryay4J_O3UU-51" style="edgeStyle=orthogonalEdgeStyle;rounded=0;orthogonalLoop=1;jettySize=auto;html=1;exitX=1;exitY=0.5;exitDx=0;exitDy=0;" edge="1" parent="1" source="kanNGnRo4Ryay4J_O3UU-52">
          <mxGeometry relative="1" as="geometry">
            <mxPoint x="501" y="570" as="sourcePoint" />
            <mxPoint x="510.9949999999999" y="580.0303030303032" as="targetPoint" />
          </mxGeometry>
        </mxCell>
        <mxCell id="kanNGnRo4Ryay4J_O3UU-52" value="&lt;br&gt;&lt;div&gt;&lt;br&gt;&lt;/div&gt;&lt;div&gt;&lt;br&gt;&lt;/div&gt;&lt;div&gt;Driver&lt;/div&gt;" style="rounded=0;whiteSpace=wrap;html=1;" vertex="1" parent="1">
          <mxGeometry x="421" y="550" width="70" height="60" as="geometry" />
        </mxCell>
        <mxCell id="kanNGnRo4Ryay4J_O3UU-53" value="" style="group" vertex="1" connectable="0" parent="1">
          <mxGeometry x="91" y="460" width="71" height="60" as="geometry" />
        </mxCell>
        <mxCell id="kanNGnRo4Ryay4J_O3UU-54" value="&lt;div&gt;&lt;br&gt;&lt;/div&gt;&lt;div&gt;&lt;br&gt;&lt;/div&gt;&lt;div&gt;&lt;br&gt;&lt;/div&gt;&lt;div&gt;Supply&lt;/div&gt;" style="rounded=0;whiteSpace=wrap;html=1;" vertex="1" parent="kanNGnRo4Ryay4J_O3UU-53">
          <mxGeometry width="70" height="60" as="geometry" />
        </mxCell>
        <mxCell id="kanNGnRo4Ryay4J_O3UU-55" value="" style="verticalLabelPosition=bottom;shadow=0;dashed=0;align=center;fillColor=strokeColor;html=1;verticalAlign=top;strokeWidth=1;shape=mxgraph.electrical.miscellaneous.monocell_battery;" vertex="1" parent="kanNGnRo4Ryay4J_O3UU-53">
          <mxGeometry x="10" y="10" width="50" height="30" as="geometry" />
        </mxCell>
        <mxCell id="kanNGnRo4Ryay4J_O3UU-56" style="edgeStyle=orthogonalEdgeStyle;rounded=0;orthogonalLoop=1;jettySize=auto;html=1;entryX=0;entryY=0.5;entryDx=0;entryDy=0;" edge="1" parent="1" source="kanNGnRo4Ryay4J_O3UU-57" target="kanNGnRo4Ryay4J_O3UU-62">
          <mxGeometry relative="1" as="geometry">
            <mxPoint x="346" y="540" as="targetPoint" />
          </mxGeometry>
        </mxCell>
        <mxCell id="kanNGnRo4Ryay4J_O3UU-57" value="&lt;div&gt;Radio&lt;/div&gt;&lt;div&gt;Interface&lt;/div&gt;" style="rounded=0;whiteSpace=wrap;html=1;dashed=1;" vertex="1" parent="1">
          <mxGeometry x="221" y="555" width="100" height="50" as="geometry" />
        </mxCell>
        <mxCell id="kanNGnRo4Ryay4J_O3UU-58" value="Microcontroller" style="text;html=1;align=center;verticalAlign=middle;whiteSpace=wrap;rounded=0;" vertex="1" parent="1">
          <mxGeometry x="256" y="510" width="110" height="30" as="geometry" />
        </mxCell>
        <mxCell id="kanNGnRo4Ryay4J_O3UU-59" value="" style="verticalLabelPosition=bottom;shadow=0;dashed=0;align=center;html=1;verticalAlign=top;shape=mxgraph.electrical.transistors.npn_transistor_5;" vertex="1" parent="1">
          <mxGeometry x="454.79999999999995" y="560" width="22.4" height="35" as="geometry" />
        </mxCell>
        <mxCell id="kanNGnRo4Ryay4J_O3UU-60" value="" style="endArrow=classic;html=1;rounded=0;entryX=0;entryY=0.5;entryDx=0;entryDy=0;exitX=1;exitY=0.5;exitDx=0;exitDy=0;" edge="1" parent="1" target="kanNGnRo4Ryay4J_O3UU-52">
          <mxGeometry width="50" height="50" relative="1" as="geometry">
            <mxPoint x="401" y="580" as="sourcePoint" />
            <mxPoint x="481" y="650" as="targetPoint" />
          </mxGeometry>
        </mxCell>
        <mxCell id="kanNGnRo4Ryay4J_O3UU-61" style="edgeStyle=orthogonalEdgeStyle;rounded=0;orthogonalLoop=1;jettySize=auto;html=1;entryX=0;entryY=0.15;entryDx=0;entryDy=0;entryPerimeter=0;" edge="1" parent="1" source="kanNGnRo4Ryay4J_O3UU-54" target="kanNGnRo4Ryay4J_O3UU-50">
          <mxGeometry relative="1" as="geometry" />
        </mxCell>
        <mxCell id="kanNGnRo4Ryay4J_O3UU-62" value="GPIO" style="rounded=0;whiteSpace=wrap;html=1;" vertex="1" parent="1">
          <mxGeometry x="351" y="540" width="50" height="80" as="geometry" />
        </mxCell>
        <mxCell id="kanNGnRo4Ryay4J_O3UU-63" value="" style="group" vertex="1" connectable="0" parent="1">
          <mxGeometry x="30" y="488" width="131" height="110" as="geometry" />
        </mxCell>
        <mxCell id="kanNGnRo4Ryay4J_O3UU-64" value="&lt;div&gt;&lt;br&gt;&lt;/div&gt;&lt;div&gt;&lt;br&gt;&lt;/div&gt;&lt;div&gt;&lt;br&gt;&lt;/div&gt;&lt;div&gt;Radio&lt;/div&gt;" style="rounded=0;whiteSpace=wrap;html=1;" vertex="1" parent="kanNGnRo4Ryay4J_O3UU-63">
          <mxGeometry x="60" y="50" width="71" height="60" as="geometry" />
        </mxCell>
        <mxCell id="kanNGnRo4Ryay4J_O3UU-65" value="" style="endArrow=none;html=1;rounded=0;exitX=0;exitY=0.5;exitDx=0;exitDy=0;entryX=0.5;entryY=1;entryDx=0;entryDy=0;entryPerimeter=0;" edge="1" parent="kanNGnRo4Ryay4J_O3UU-63" source="kanNGnRo4Ryay4J_O3UU-64" target="kanNGnRo4Ryay4J_O3UU-67">
          <mxGeometry width="50" height="50" relative="1" as="geometry">
            <mxPoint x="160" y="130" as="sourcePoint" />
            <mxPoint x="210" y="80" as="targetPoint" />
          </mxGeometry>
        </mxCell>
        <mxCell id="kanNGnRo4Ryay4J_O3UU-66" value="&lt;font style=&quot;font-size: 20px;&quot;&gt;Tx&lt;/font&gt;" style="text;html=1;align=center;verticalAlign=middle;whiteSpace=wrap;rounded=0;" vertex="1" parent="kanNGnRo4Ryay4J_O3UU-63">
          <mxGeometry x="77.5" y="65" width="36" height="30" as="geometry" />
        </mxCell>
        <mxCell id="kanNGnRo4Ryay4J_O3UU-67" value="" style="verticalLabelPosition=bottom;shadow=0;dashed=0;align=center;html=1;verticalAlign=top;shape=mxgraph.electrical.radio.aerial_-_antenna_1;" vertex="1" parent="kanNGnRo4Ryay4J_O3UU-63">
          <mxGeometry y="30" width="41" height="50" as="geometry" />
        </mxCell>
        <mxCell id="kanNGnRo4Ryay4J_O3UU-68" value="&lt;div&gt;&lt;br&gt;&lt;/div&gt;&lt;div&gt;&lt;br&gt;&lt;/div&gt;&lt;div&gt;&lt;br&gt;&lt;/div&gt;&lt;div&gt;Radio&lt;/div&gt;" style="rounded=0;whiteSpace=wrap;html=1;" vertex="1" parent="1">
          <mxGeometry x="91" y="620" width="71" height="60" as="geometry" />
        </mxCell>
        <mxCell id="kanNGnRo4Ryay4J_O3UU-69" value="" style="endArrow=none;html=1;rounded=0;exitX=0;exitY=0.5;exitDx=0;exitDy=0;entryX=0.5;entryY=1;entryDx=0;entryDy=0;entryPerimeter=0;" edge="1" parent="1" source="kanNGnRo4Ryay4J_O3UU-68">
          <mxGeometry width="50" height="50" relative="1" as="geometry">
            <mxPoint x="191" y="700" as="sourcePoint" />
            <mxPoint x="52" y="650" as="targetPoint" />
          </mxGeometry>
        </mxCell>
        <mxCell id="kanNGnRo4Ryay4J_O3UU-70" value="&lt;font style=&quot;font-size: 20px;&quot;&gt;Rx&lt;/font&gt;" style="text;html=1;align=center;verticalAlign=middle;whiteSpace=wrap;rounded=0;" vertex="1" parent="1">
          <mxGeometry x="108.5" y="635" width="36" height="30" as="geometry" />
        </mxCell>
        <mxCell id="kanNGnRo4Ryay4J_O3UU-71" value="" style="verticalLabelPosition=bottom;shadow=0;dashed=0;align=center;html=1;verticalAlign=top;shape=mxgraph.electrical.radio.aerial_-_antenna_1;" vertex="1" parent="1">
          <mxGeometry x="32" y="600" width="41" height="50" as="geometry" />
        </mxCell>
        <mxCell id="kanNGnRo4Ryay4J_O3UU-72" value="" style="endArrow=classic;html=1;rounded=0;exitX=0;exitY=0.25;exitDx=0;exitDy=0;entryX=1;entryY=0.5;entryDx=0;entryDy=0;" edge="1" parent="1" source="kanNGnRo4Ryay4J_O3UU-57" target="kanNGnRo4Ryay4J_O3UU-64">
          <mxGeometry width="50" height="50" relative="1" as="geometry">
            <mxPoint x="151" y="590" as="sourcePoint" />
            <mxPoint x="201" y="540" as="targetPoint" />
            <Array as="points">
              <mxPoint x="191" y="568" />
            </Array>
          </mxGeometry>
        </mxCell>
        <mxCell id="kanNGnRo4Ryay4J_O3UU-73" value="" style="endArrow=classic;html=1;rounded=0;exitX=1;exitY=0.5;exitDx=0;exitDy=0;entryX=0;entryY=0.75;entryDx=0;entryDy=0;" edge="1" parent="1" source="kanNGnRo4Ryay4J_O3UU-68" target="kanNGnRo4Ryay4J_O3UU-57">
          <mxGeometry width="50" height="50" relative="1" as="geometry">
            <mxPoint x="151" y="590" as="sourcePoint" />
            <mxPoint x="201" y="540" as="targetPoint" />
            <Array as="points">
              <mxPoint x="191" y="650" />
              <mxPoint x="191" y="593" />
            </Array>
          </mxGeometry>
        </mxCell>
        <mxCell id="kanNGnRo4Ryay4J_O3UU-74" value="&lt;div&gt;&lt;br&gt;&lt;/div&gt;&lt;div&gt;&lt;br&gt;&lt;/div&gt;&lt;div&gt;Transducer&lt;br&gt;&lt;/div&gt;&lt;div&gt;Tx&lt;/div&gt;" style="rounded=0;whiteSpace=wrap;html=1;" vertex="1" parent="1">
          <mxGeometry x="511.005" y="550" width="70" height="60" as="geometry" />
        </mxCell>
        <mxCell id="kanNGnRo4Ryay4J_O3UU-75" value="" style="group" vertex="1" connectable="0" parent="1">
          <mxGeometry x="527.255" y="560" width="23.75" height="20" as="geometry" />
        </mxCell>
        <mxCell id="kanNGnRo4Ryay4J_O3UU-76" value="" style="endArrow=none;html=1;rounded=0;" edge="1" parent="kanNGnRo4Ryay4J_O3UU-75">
          <mxGeometry width="50" height="50" relative="1" as="geometry">
            <mxPoint y="4.930000000000007" as="sourcePoint" />
            <mxPoint x="9.5" y="4.930000000000007" as="targetPoint" />
          </mxGeometry>
        </mxCell>
        <mxCell id="kanNGnRo4Ryay4J_O3UU-77" value="" style="endArrow=none;html=1;rounded=0;" edge="1" parent="kanNGnRo4Ryay4J_O3UU-75">
          <mxGeometry width="50" height="50" relative="1" as="geometry">
            <mxPoint y="14.930000000000007" as="sourcePoint" />
            <mxPoint x="9.5" y="14.930000000000007" as="targetPoint" />
          </mxGeometry>
        </mxCell>
        <mxCell id="kanNGnRo4Ryay4J_O3UU-78" value="" style="shape=cylinder3;whiteSpace=wrap;html=1;boundedLbl=1;backgroundOutline=1;size=4.724137931034591;rotation=90;" vertex="1" parent="kanNGnRo4Ryay4J_O3UU-75">
          <mxGeometry x="2.375" width="19" height="20" as="geometry" />
        </mxCell>
        <mxCell id="kanNGnRo4Ryay4J_O3UU-79" value="" style="group" vertex="1" connectable="0" parent="1">
          <mxGeometry x="820" y="360" width="71" height="60" as="geometry" />
        </mxCell>
        <mxCell id="kanNGnRo4Ryay4J_O3UU-80" value="&lt;div&gt;&lt;br&gt;&lt;/div&gt;&lt;div&gt;&lt;br&gt;&lt;/div&gt;&lt;div&gt;&lt;br&gt;&lt;/div&gt;&lt;div&gt;Supply&lt;/div&gt;" style="rounded=0;whiteSpace=wrap;html=1;" vertex="1" parent="kanNGnRo4Ryay4J_O3UU-79">
          <mxGeometry width="70" height="60" as="geometry" />
        </mxCell>
        <mxCell id="kanNGnRo4Ryay4J_O3UU-81" value="" style="verticalLabelPosition=bottom;shadow=0;dashed=0;align=center;fillColor=strokeColor;html=1;verticalAlign=top;strokeWidth=1;shape=mxgraph.electrical.miscellaneous.monocell_battery;" vertex="1" parent="kanNGnRo4Ryay4J_O3UU-79">
          <mxGeometry x="10" y="10" width="50" height="30" as="geometry" />
        </mxCell>
        <mxCell id="kanNGnRo4Ryay4J_O3UU-83" style="edgeStyle=orthogonalEdgeStyle;rounded=0;orthogonalLoop=1;jettySize=auto;html=1;entryX=0.003;entryY=0.091;entryDx=0;entryDy=0;entryPerimeter=0;" edge="1" parent="1" source="kanNGnRo4Ryay4J_O3UU-80" target="wmiJ7FHdRQBtYZNkb7RU-1">
          <mxGeometry relative="1" as="geometry" />
        </mxCell>
      </root>
    </mxGraphModel>
  </diagram>
</mxfile>
